<?xml version="1.0" standalone="no"?>
<!DOCTYPE svg PUBLIC "-//W3C//DTD SVG 20010904//EN"
 "http://www.w3.org/TR/2001/REC-SVG-20010904/DTD/svg10.dtd">
<svg version="1.0" xmlns="http://www.w3.org/2000/svg"
 width="16.000000pt" height="16.000000pt" viewBox="0 0 16.000000 16.000000"
 preserveAspectRatio="xMidYMid meet">
<metadata>
Created by potrace 1.11, written by Peter Selinger 2001-2013
</metadata>
<g transform="translate(0.000000,16.000000) scale(0.001633,-0.001633)"
fill="#000000" stroke="none">
<path d="M4810 4900 l0 -4380 510 0 510 0 2 789 3 790 1269 -787 1268 -787
650 3 649 2 -3 64 -3 64 -1795 1187 c-987 653 -1796 1190 -1798 1193 -1 4 643
381 1430 837 788 456 1434 830 1436 831 5 3 -369 654 -376 654 -4 0 -620 -355
-1370 -789 l-1362 -789 0 2749 0 2749 -510 0 -510 0 0 -4380z"/>
<path d="M6350 8155 l0 -435 63 -2 c34 -1 69 -1 77 -1 8 1 755 103 1658 227
904 124 1645 226 1645 226 1 0 3 31 3 70 l1 70 -31 5 c-77 12 -3269 275 -3338
275 l-78 0 0 -435z"/>
<path d="M0 8125 l0 -435 1255 0 1255 0 0 -3585 0 -3585 505 0 505 0 0 3585 0
3585 370 0 370 0 0 435 0 435 -2130 0 -2130 0 0 -435z"/>
</g>
</svg>
