<?xml version="1.0" encoding="utf-8"?>
<!-- Generator: Adobe Illustrator 16.0.0, SVG Export Plug-In . SVG Version: 6.00 Build 0)  -->
<!DOCTYPE svg PUBLIC "-//W3C//DTD SVG 1.1//EN" "http://www.w3.org/Graphics/SVG/1.1/DTD/svg11.dtd">
<svg version="1.1" id="Layer_1" xmlns="http://www.w3.org/2000/svg" xmlns:xlink="http://www.w3.org/1999/xlink" x="0px" y="0px"
	 width="240px" height="240px" viewBox="0 0 240 240" enable-background="new 0 0 240 240" xml:space="preserve">
<rect fill="#0B1726" stroke="#0B1726" stroke-miterlimit="10" width="241.93" height="243.14"/>
<rect y="33.098" fill="#EAE73C" width="104.209" height="21.352"/>
<rect x="61.354" y="54.45" fill="#EAE73C" width="24.914" height="175.567"/>
<rect x="117.752" y="15.547" fill="#EAE73C" width="24.916" height="214.47"/>
<polygon fill="#EAE73C" points="126.531,159.631 209.763,111.424 218.935,127.494 135.703,175.702 "/>
<g>
	<g id="XMLID_3_">
		<g>
			<polygon fill="#EAE73C" points="236.646,226.675 234.856,229.431 230.696,226.675 			"/>
			<polygon fill="#EAE73C" points="236.646,226.675 230.696,226.675 133.463,162.378 133.463,158.739 131.869,158.739 
				132.486,157.824 			"/>
			<polygon fill="#EAE73C" points="234.856,229.431 236.646,226.675 236.71,226.675 236.71,229.951 205.221,229.951 
				206.876,227.233 205.968,226.675 230.696,226.675 			"/>
			<polygon fill="#EAE73C" points="230.696,226.675 205.968,226.675 133.463,181.725 133.463,162.378 			"/>
			<polygon fill="#EAE73C" points="206.876,227.233 205.221,229.951 205.088,229.951 205.022,229.923 205.022,226.675 
				205.968,226.675 			"/>
			<polygon fill="#EAE73C" points="205.221,229.951 205.188,230.02 205.088,229.951 			"/>
			<polygon fill="#EAE73C" points="205.088,229.951 205.022,229.951 205.022,229.923 			"/>
			<polygon fill="#EAE73C" points="133.463,181.725 133.463,183.267 131.447,183.267 132.682,181.233 			"/>
			<polygon fill="#EAE73C" points="133.463,162.378 133.463,181.725 132.682,181.233 131.447,183.267 130.212,183.267 
				130.212,158.739 131.869,158.739 130.701,160.542 			"/>
			<polygon fill="#EAE73C" points="133.463,158.739 133.463,162.378 130.701,160.542 131.869,158.739 			"/>
			<polygon fill="#EAE73C" points="130.992,184.017 131.447,183.267 133.463,183.267 133.463,181.725 205.968,226.675 
				205.022,226.675 205.022,229.923 			"/>
		</g>
	</g>
</g>
<g>
	<g id="XMLID_1_">
		<g>
			<polygon fill="#EAE73C" points="240.291,39.892 240.021,42.017 239.672,40.121 226.076,41.988 159.586,36.389 159.586,33.081 			
				"/>
			<polygon fill="#EAE73C" points="239.672,40.121 240.021,42.017 239.906,43.13 226.076,41.988 			"/>
			<polygon fill="#EAE73C" points="240.291,43.33 159.586,54.363 159.586,51.056 226.076,41.988 239.906,43.13 240.021,42.017 			
				"/>
			<polygon fill="#EAE73C" points="226.076,41.988 159.586,51.056 159.586,36.389 			"/>
			<polygon fill="#EAE73C" points="159.586,54.363 159.586,54.46 158.973,54.46 			"/>
			<polygon fill="#EAE73C" points="159.586,51.056 159.586,54.363 158.973,54.46 158.739,54.46 158.165,51.25 			"/>
			<polygon fill="#EAE73C" points="159.586,36.389 159.586,51.056 158.165,51.25 158.739,54.46 155.744,54.46 155.744,33.081 
				159.044,33.081 158.664,36.324 			"/>
			<polygon fill="#EAE73C" points="159.586,33.081 159.586,36.389 158.664,36.324 159.044,33.081 159.436,33.081 			"/>
			<polygon fill="#EAE73C" points="159.436,33.081 159.044,33.081 159.044,33.049 			"/>
			<polygon fill="#EAE73C" points="158.973,54.46 158.739,54.495 158.739,54.46 			"/>
		</g>
	</g>
</g>
<rect x="158.664" y="39.011" fill="#EAE73C" stroke="#EAE73C" stroke-miterlimit="10" width="51.031" height="6.278"/>
<rect x="158.664" y="45.74" fill="#EAE73C" stroke="#EAE73C" stroke-miterlimit="10" width="26.525" height="3.133"/>
<rect x="159.481" y="37.446" fill="#EAE73C" stroke="#EAE73C" stroke-miterlimit="10" width="26.524" height="3.134"/>
<rect x="157.664" y="44.167" fill="#EAE73C" stroke="#EAE73C" stroke-miterlimit="10" width="26.525" height="3.135"/>
<rect x="160.286" y="47.31" fill="#EAE73C" stroke="#EAE73C" stroke-miterlimit="10" width="15.962" height="3.135"/>
<rect x="157.664" y="37.446" fill="#EAE73C" stroke="#EAE73C" stroke-miterlimit="10" width="25.356" height="1.566"/>
<rect x="209.117" y="41.367" fill="#EAE73C" stroke="#EAE73C" stroke-miterlimit="10" width="20.624" height="1.573"/>
<rect x="212.906" y="41.109" fill="#EAE73C" stroke="#EAE73C" stroke-miterlimit="10" width="19.131" height="1.127"/>
<rect x="197.743" y="42.351" fill="#EAE73C" stroke="#EAE73C" stroke-miterlimit="10" width="20.621" height="1.571"/>
<rect x="205.329" y="41.564" fill="#EAE73C" stroke="#EAE73C" stroke-miterlimit="10" width="20.616" height="1.569"/>
<rect x="201.854" y="40.075" fill="#EAE73C" stroke="#EAE73C" stroke-miterlimit="10" width="19.217" height="1.336"/>
<rect x="194.085" y="42.987" fill="#EAE73C" stroke="#EAE73C" stroke-miterlimit="10" width="20.625" height="1.567"/>
</svg>
