<?xml version="1.0" encoding="utf-8"?>
<!-- Generator: Adobe Illustrator 16.0.0, SVG Export Plug-In . SVG Version: 6.00 Build 0)  -->
<!DOCTYPE svg PUBLIC "-//W3C//DTD SVG 1.1//EN" "http://www.w3.org/Graphics/SVG/1.1/DTD/svg11.dtd">
<svg version="1.1" id="Layer_1" xmlns="http://www.w3.org/2000/svg" xmlns:xlink="http://www.w3.org/1999/xlink" x="0px" y="0px"
	 width="100px" height="100px" viewBox="0 0 100 100" enable-background="new 0 0 100 100" xml:space="preserve">
<rect x="11.267" y="22.735" fill="#ECE834" width="32.066" height="6.521"/>
<rect x="30.146" y="29.257" fill="#ECE834" width="7.666" height="53.623"/>
<rect x="47.5" y="17.375" fill="#ECE834" width="7.666" height="65.505"/>
<rect x="49.649" y="53.642" transform="matrix(0.8669 -0.4984 0.4984 0.8669 -19.5761 39.6258)" fill="#ECE834" width="29.545" height="5.663"/>
<g>
	<g id="XMLID_3_">
		<g>
			<polygon fill="#ECE834" points="84.084,81.86 83.534,82.7 82.254,81.86 			"/>
			<polygon fill="#ECE834" points="84.084,81.86 82.254,81.86 52.334,62.221 52.334,61.11 51.844,61.11 52.034,60.83 			"/>
			<polygon fill="#ECE834" points="83.534,82.7 84.084,81.86 84.104,81.86 84.104,82.86 74.414,82.86 74.924,82.03 74.644,81.86 
				82.254,81.86 			"/>
			<polygon fill="#ECE834" points="82.254,81.86 74.644,81.86 52.334,68.13 52.334,62.221 			"/>
			<polygon fill="#ECE834" points="74.924,82.03 74.414,82.86 74.374,82.86 74.354,82.851 74.354,81.86 74.644,81.86 			"/>
			<polygon fill="#ECE834" points="74.414,82.86 74.404,82.88 74.374,82.86 			"/>
			<polygon fill="#ECE834" points="74.374,82.86 74.354,82.86 74.354,82.851 			"/>
			<polygon fill="#ECE834" points="52.334,68.13 52.334,68.601 51.714,68.601 52.094,67.98 			"/>
			<polygon fill="#ECE834" points="52.334,62.221 52.334,68.13 52.094,67.98 51.714,68.601 51.334,68.601 51.334,61.11 
				51.844,61.11 51.484,61.66 			"/>
			<polygon fill="#ECE834" points="52.334,61.11 52.334,62.221 51.484,61.66 51.844,61.11 			"/>
			<polygon fill="#ECE834" points="51.574,68.83 51.714,68.601 52.334,68.601 52.334,68.13 74.644,81.86 74.354,81.86 
				74.354,82.851 			"/>
		</g>
		<g>
		</g>
	</g>
</g>
<g>
	<g id="XMLID_1_">
		<g>
			<polygon fill="#ECE834" points="85.205,24.81 85.122,25.46 85.016,24.88 80.832,25.45 60.372,23.74 60.372,22.73 			"/>
			<polygon fill="#ECE834" points="85.016,24.88 85.122,25.46 85.087,25.8 80.832,25.45 			"/>
			<polygon fill="#ECE834" points="85.205,25.86 60.372,29.23 60.372,28.22 80.832,25.45 85.087,25.8 85.122,25.46 			"/>
			<polygon fill="#ECE834" points="80.832,25.45 60.372,28.22 60.372,23.74 			"/>
			<polygon fill="#ECE834" points="60.372,29.23 60.372,29.26 60.183,29.26 			"/>
			<polygon fill="#ECE834" points="60.372,28.22 60.372,29.23 60.183,29.26 60.112,29.26 59.935,28.28 			"/>
			<polygon fill="#ECE834" points="60.372,23.74 60.372,28.22 59.935,28.28 60.112,29.26 59.19,29.26 59.19,22.73 60.206,22.73 
				60.088,23.72 			"/>
			<polygon fill="#ECE834" points="60.372,22.73 60.372,23.74 60.088,23.72 60.206,22.73 60.325,22.73 			"/>
			<polygon fill="#ECE834" points="60.325,22.73 60.206,22.73 60.206,22.72 			"/>
			<polygon fill="#ECE834" points="60.183,29.26 60.112,29.27 60.112,29.26 			"/>
		</g>
		<g>
		</g>
	</g>
</g>
<rect x="60.088" y="24.542" fill="#ECE834" stroke="#ECE834" stroke-miterlimit="10" width="15.704" height="1.917"/>
<rect x="60.088" y="26.596" fill="#ECE834" stroke="#ECE834" stroke-miterlimit="10" width="8.162" height="0.958"/>
<rect x="60.34" y="24.063" fill="#ECE834" stroke="#ECE834" stroke-miterlimit="10" width="8.162" height="0.958"/>
<rect x="59.781" y="26.116" fill="#ECE834" stroke="#ECE834" stroke-miterlimit="10" width="8.162" height="0.958"/>
<rect x="60.588" y="27.075" fill="#ECE834" stroke="#ECE834" stroke-miterlimit="10" width="4.912" height="0.958"/>
<rect x="59.781" y="24.063" fill="#ECE834" stroke="#ECE834" stroke-miterlimit="10" width="7.802" height="0.479"/>
<rect x="75.614" y="25.261" fill="#ECE834" stroke="#ECE834" stroke-miterlimit="10" width="6.345" height="0.479"/>
<rect x="76.78" y="25.182" fill="#ECE834" stroke="#ECE834" stroke-miterlimit="10" width="5.887" height="0.344"/>
<rect x="72.114" y="25.561" fill="#ECE834" stroke="#ECE834" stroke-miterlimit="10" width="6.345" height="0.479"/>
<rect x="74.447" y="25.321" fill="#ECE834" stroke="#ECE834" stroke-miterlimit="10" width="6.345" height="0.479"/>
<rect x="73.379" y="24.866" fill="#ECE834" stroke="#ECE834" stroke-miterlimit="10" width="5.913" height="0.408"/>
<rect x="70.989" y="25.755" fill="#ECE834" stroke="#ECE834" stroke-miterlimit="10" width="6.345" height="0.479"/>
</svg>
